<?xml version="1.0" encoding="utf-8"?>
<svg xmlns="http://www.w3.org/2000/svg" xmlns:xlink="http://www.w3.org/1999/xlink" width="552" height="294.02" viewBox="0 0 552 294.02"><defs><style>.cls-1,.cls-20{opacity:0.8;}.cls-2{fill:#fff;}.cls-3{opacity:0.3;}.cls-4{fill:#263d5d;}.cls-5{fill:#f6f7f8;}.cls-32,.cls-33,.cls-6{fill:#718095;}.cls-7{fill:#dfe2e7;}.cls-8{fill:#95a0b0;}.cls-9{fill:#ffd7b3;}.cls-10{fill:#70ddf0;}.cls-11,.cls-14,.cls-29{fill:none;}.cls-11,.cls-12,.cls-13,.cls-14,.cls-29,.cls-34{stroke-miterlimit:10;}.cls-11,.cls-29{stroke-width:0.25px;}.cls-11{stroke:url(#Unbenannter_Verlauf_75);}.cls-12{fill:#272e61;}.cls-12,.cls-13,.cls-34{stroke:#262d61;}.cls-12,.cls-13,.cls-14,.cls-34{stroke-width:0.5px;}.cls-12,.cls-13,.cls-33,.cls-34{opacity:0.9;}.cls-13{fill:url(#Neues_Verlaufsfeld_20);}.cls-14{stroke:url(#Unbenannter_Verlauf_15);}.cls-15{fill:#00c1f8;}.cls-16{opacity:0.6;}.cls-17{fill:#e7f9fc;}.cls-18{opacity:0.7;}.cls-19{fill:#00bff6;}.cls-20{fill:#031e6c;}.cls-21{fill:url(#Unbenannter_Verlauf_167);}.cls-22{fill:#054f97;}.cls-23{fill:#001b41;}.cls-24{fill:#084170;}.cls-25{fill:#091f3a;}.cls-26{fill:url(#Neues_Verlaufsfeld_20-2);}.cls-27{fill:#633427;}.cls-28{fill:#3f9cd6;}.cls-29{stroke:#3f9cd6;}.cls-30{fill:url(#Unbenannter_Verlauf_15-2);}.cls-31{fill:url(#Unbenannter_Verlauf_71);}.cls-32{opacity:0.2;}.cls-34{fill:url(#Neues_Verlaufsfeld_20-3);}</style><linearGradient id="Unbenannter_Verlauf_75" x1="216.02" y1="54.01" x2="216.02" y2="291.72" gradientTransform="matrix(-1, 0, 0, 1, 491.98, 0)" gradientUnits="userSpaceOnUse"><stop offset="0" stop-color="#fff" stop-opacity="0"/><stop offset="0.4" stop-color="#c8c6ba" stop-opacity="0.4"/><stop offset="1" stop-color="#d0d0d0" stop-opacity="0.8"/></linearGradient><linearGradient id="Neues_Verlaufsfeld_20" x1="-67.87" y1="1.44" x2="-18.78" y2="1.44" gradientTransform="translate(201.65 66.97) rotate(30)" gradientUnits="userSpaceOnUse"><stop offset="0" stop-color="#3e4dda"/><stop offset="1" stop-color="#091471"/></linearGradient><linearGradient id="Unbenannter_Verlauf_15" x1="140.42" y1="-3.32" x2="152.77" y2="-3.32" gradientTransform="matrix(0.5, 0.87, -0.58, 1, 82.88, -88.99)" gradientUnits="userSpaceOnUse"><stop offset="0" stop-color="#11c7e6"/><stop offset="1" stop-color="#3c9ddb"/></linearGradient><linearGradient id="Unbenannter_Verlauf_167" x1="191.62" y1="10.38" x2="127.28" y2="10.75" gradientTransform="matrix(1, 1.15, 0, 1, 0.81, -133.74)" gradientUnits="userSpaceOnUse"><stop offset="0.39" stop-color="#e7f9fc" stop-opacity="0"/><stop offset="0.53" stop-color="#9ce7f4" stop-opacity="0.2"/><stop offset="0.67" stop-color="#5dd8ee" stop-opacity="0.36"/><stop offset="0.79" stop-color="#36cfe9" stop-opacity="0.46"/><stop offset="0.86" stop-color="#28cce8" stop-opacity="0.5"/></linearGradient><linearGradient id="Neues_Verlaufsfeld_20-2" x1="310.72" y1="212.72" x2="331.25" y2="212.72" gradientTransform="matrix(-1, 0, 0, 1, 491.98, 0)" xlink:href="#Neues_Verlaufsfeld_20"/><linearGradient id="Unbenannter_Verlauf_15-2" x1="328.57" y1="226.01" x2="339.01" y2="226.01" gradientTransform="matrix(-1, 0, 0, 1, 491.98, 0)" xlink:href="#Unbenannter_Verlauf_15"/><linearGradient id="Unbenannter_Verlauf_71" x1="-720.93" y1="385.39" x2="-720.34" y2="382.78" gradientTransform="matrix(-46.26, 3.33, -1.69, -23.46, -32482.68, 11610.42)" gradientUnits="userSpaceOnUse"><stop offset="0" stop-color="#fff" stop-opacity="0"/><stop offset="0.27" stop-color="#c8c6ba" stop-opacity="0.4"/><stop offset="0.43" stop-color="#c9c7bb" stop-opacity="0.42"/><stop offset="0.62" stop-color="#cac9c0" stop-opacity="0.48"/><stop offset="0.81" stop-color="#cdccc7" stop-opacity="0.57"/><stop offset="1" stop-color="#d0d0d0" stop-opacity="0.7"/></linearGradient><linearGradient id="Neues_Verlaufsfeld_20-3" x1="516.54" y1="338.96" x2="592.24" y2="338.96" gradientTransform="matrix(0, 0.58, -1.73, 0, 847.16, -198.06)" xlink:href="#Neues_Verlaufsfeld_20"/></defs><title>Intuitives-control-panel</title><g id="Ebene_3" data-name="Ebene 3"><g class="cls-1"><path class="cls-2" d="M113.93,228.77a2.38,2.38,0,0,0,.91-1.05c.38-.79.28-1.56-.22-1.71l-7.44-2.18,7.52-12.22c.46-.76.5-1.61.08-1.9s-1.15.08-1.61.84l-8.53,13.87a2.32,2.32,0,0,0-.38,1.25c0,.38.18.65.45.72l8.54,2.51A.88.88,0,0,0,113.93,228.77Z"/><path class="cls-2" d="M92.84,241l10.33-6a2.5,2.5,0,0,0,1.14-2c0-.72-.51-1-1.14-.65l-10.33,6a2.52,2.52,0,0,0-1.14,2C91.7,241,92.21,241.31,92.84,241Z"/></g><g class="cls-3"><polygon class="cls-4" points="451.62 135.95 400.14 106.23 451.62 76.5 503.11 106.22 451.62 135.95"/><polygon class="cls-5" points="451.79 104.75 400.31 75.03 451.79 45.31 503.27 75.03 451.79 104.75"/><polygon class="cls-6" points="451.62 130.82 400.14 101.1 400.14 74.99 451.62 104.71 451.62 130.82"/><polygon class="cls-7" points="451.62 130.82 503.11 101.1 503.1 74.99 451.62 104.71 451.62 130.82"/></g><polygon class="cls-4" points="321.07 129.2 249.7 87.99 321.07 46.79 392.44 87.99 321.07 129.2"/><polygon class="cls-5" points="321.07 97.36 249.7 56.16 321.07 14.95 392.44 56.16 321.07 97.36"/><polygon class="cls-6" points="321.07 122.09 249.7 80.88 249.7 56.16 321.07 97.36 321.07 122.09"/><polygon class="cls-7" points="321.07 122.08 392.44 80.88 392.44 56.16 321.07 97.36 321.07 122.08"/><path class="cls-4" d="M313.31,108.73l-36.55-21.1a7,7,0,0,1-2.9-5.55h0c0-2.13,1.3-3.12,2.9-2.2L313.31,101a7,7,0,0,1,2.91,5.54h0C316.22,108.66,314.91,109.65,313.31,108.73Z"/><path class="cls-8" d="M326.14,114.69h0c-.46.27-.85,0-.85-.64V101.88a2,2,0,0,1,.85-1.61h0c.47-.27.85,0,.85.64v12.16A2,2,0,0,1,326.14,114.69Z"/><path class="cls-8" d="M329.62,113.1h0c-.47.27-.85,0-.85-.64V100.29a2,2,0,0,1,.85-1.61h0c.46-.27.84,0,.84.64v12.16A2.05,2.05,0,0,1,329.62,113.1Z"/><path class="cls-8" d="M333.19,111h0c-.47.27-.85,0-.85-.64V98.23a2,2,0,0,1,.85-1.61h0c.46-.27.84,0,.84.64v12.16A2.05,2.05,0,0,1,333.19,111Z"/><ellipse class="cls-9" cx="259.09" cy="73.86" rx="1.52" ry="2.63" transform="translate(-2.22 139.44) rotate(-30)"/><ellipse class="cls-10" cx="263.94" cy="76.51" rx="1.52" ry="2.63" transform="translate(-2.9 142.22) rotate(-30)"/><g class="cls-3"><polygon class="cls-4" points="383.45 222.4 314.12 182.37 383.45 142.34 452.79 182.37 383.45 222.4"/><polygon class="cls-5" points="383.45 191.47 314.12 151.44 383.45 111.41 452.79 151.44 383.45 191.47"/><polygon class="cls-6" points="383.45 215.49 314.12 175.46 314.12 151.44 383.45 191.47 383.45 215.49"/><polygon class="cls-7" points="383.45 215.49 452.79 175.46 452.78 151.44 383.45 191.47 383.45 215.49"/></g></g><g id="Ebene_4" data-name="Ebene 4"><ellipse class="cls-11" cx="275.96" cy="172.87" rx="273.96" ry="118.73"/><path class="cls-12" d="M175.28,74,153.6,59.86A3.58,3.58,0,0,1,152.1,57l-1.45-37.09c0-1.09,2.68-1.48,3.5-1L176.5,33.1A3.59,3.59,0,0,1,178,36V72C178,73.05,176.11,74.47,175.28,74Z"/><path class="cls-13" d="M174.85,73.82,152,60.6a3.6,3.6,0,0,1-1.49-2.86V20.43c0-1.1.67-1.61,1.49-1.13l22.9,14.54a3.57,3.57,0,0,1,1.5,2.85v36C176.35,73.79,175.68,74.29,174.85,73.82Z"/><ellipse class="cls-14" cx="158.1" cy="34.64" rx="4.19" ry="7.25" transform="translate(3.86 83.69) rotate(-30)"/><path class="cls-15" d="M158.54,31.2v3.2l2.66,1.53v1l-2.66-1.53v3.29l-.88-.51V34.85l-2.6-1.51V32.4l2.6,1.5V30.69Z"/><g class="cls-16"><path class="cls-17" d="M168.17,36l-1.26-.72c-.11-.07-.19,0-.19.14v9.84a.46.46,0,0,0,.2.37l1.26.73c.1.06.19,0,.19-.15V36.39A.48.48,0,0,0,168.17,36Z"/><path class="cls-17" d="M170.94,41.6l-1.34-.77c-.08,0-.15,0-.15.11v6a.38.38,0,0,0,.15.29l1.34.77c.09.05.16,0,.16-.12v-6A.36.36,0,0,0,170.94,41.6Z"/><path class="cls-17" d="M173.66,41.29l-1.3-.75c-.09-.06-.17,0-.17.13v7.8a.45.45,0,0,0,.17.33l1.3.75c.1.05.17,0,.17-.13v-7.8A.39.39,0,0,0,173.66,41.29Z"/></g><g class="cls-18"><path class="cls-19" d="M155.54,45.81v2.63a1.12,1.12,0,0,1-.17.68.51.51,0,0,1-.48.24,1.54,1.54,0,0,1-.75-.25,2.75,2.75,0,0,1-1-1,2.56,2.56,0,0,1-.36-1.31V44.21l.57.33V47.1a1.66,1.66,0,0,0,.21.86,1.56,1.56,0,0,0,.62.6c.54.31.81.14.81-.52V45.48Z"/><path class="cls-19" d="M157.73,51.18a1.92,1.92,0,0,1-.79-.87l0,0c0,.27,0,.44,0,.49V52l-.56-.33V47.28l.45.27c0,.06,0,.21.08.45l0,0c.18-.21.44-.21.8,0a2,2,0,0,1,.77.86,3.13,3.13,0,0,1,.28,1.33,1.35,1.35,0,0,1-.29,1C158.32,51.38,158.06,51.37,157.73,51.18Zm-.14-2.72c-.23-.13-.39-.15-.49-.06s-.16.31-.16.64v.1a2.1,2.1,0,0,0,.16.9,1.23,1.23,0,0,0,.5.54c.19.11.34.1.45,0a1.09,1.09,0,0,0,.16-.7,2.08,2.08,0,0,0-.16-.87A1.09,1.09,0,0,0,157.59,48.46Z"/><path class="cls-19" d="M160.34,52.69a2,2,0,0,1-.78-.86,3.13,3.13,0,0,1-.28-1.33,1.35,1.35,0,0,1,.29-1q.27-.26.78,0a1.87,1.87,0,0,1,.79.91h0a4.26,4.26,0,0,1,0-.54V48.78l.57.33v4.31l-.44-.25-.1-.46,0,0C161,52.89,160.69,52.89,160.34,52.69Zm.15-.44c.23.13.4.16.5.07s.16-.31.17-.64v-.09a2.1,2.1,0,0,0-.17-.92,1.11,1.11,0,0,0-.51-.54c-.2-.11-.35-.11-.46,0a1.19,1.19,0,0,0-.16.71,2.2,2.2,0,0,0,.16.86A1.09,1.09,0,0,0,160.49,52.25Z"/><path class="cls-19" d="M164.17,54.85l-.12-.5h0a.51.51,0,0,1-.38.16,1.21,1.21,0,0,1-.5-.19,1.65,1.65,0,0,1-.61-.59,1.55,1.55,0,0,1-.22-.82q0-.48.3-.54a1.62,1.62,0,0,1,.93.27l.46.25v-.16a1,1,0,0,0-.12-.51,1,1,0,0,0-.37-.36,1,1,0,0,0-.39-.15,1.49,1.49,0,0,0-.36-.05l-.18-.57a1.67,1.67,0,0,1,.47.07,3.06,3.06,0,0,1,.49.22,2.13,2.13,0,0,1,.76.69,1.76,1.76,0,0,1,.26.95v2.07Zm-.84-.93a.54.54,0,0,0,.49.08q.18-.09.18-.45v-.26l-.34-.18a1.07,1.07,0,0,0-.58-.18c-.12,0-.18.12-.18.31a.7.7,0,0,0,.11.38A.78.78,0,0,0,163.33,53.92Z"/><path class="cls-19" d="M166.34,55.63a1.48,1.48,0,0,0,.42.17v.49l-.24-.06-.31-.15a1.56,1.56,0,0,1-.8-1.44V53l-.36-.21v-.29h.39l.19-.54.35.2v.68l.75.44v.49l-.75-.43V55a.78.78,0,0,0,.1.41A.72.72,0,0,0,166.34,55.63Z"/><path class="cls-19" d="M168.45,57.37a2.51,2.51,0,0,1-1-1,2.77,2.77,0,0,1-.35-1.35,1.23,1.23,0,0,1,.32-1c.22-.16.52-.13.89.09a2.16,2.16,0,0,1,.83.84,2.36,2.36,0,0,1,.31,1.2v.35l-1.77-1a1.73,1.73,0,0,0,.21.8,1.48,1.48,0,0,0,.55.56,2.35,2.35,0,0,0,.44.2,1.56,1.56,0,0,0,.44.09v.52a1.25,1.25,0,0,1-.42-.08A2.55,2.55,0,0,1,168.45,57.37Zm-.11-2.74c-.18-.1-.32-.12-.43-.05a.6.6,0,0,0-.19.46l1.21.7a1.54,1.54,0,0,0-.16-.67A1.14,1.14,0,0,0,168.34,54.63Z"/><path class="cls-19" d="M170,57.89c0-.14,0-.22.09-.26s.15,0,.26,0a.62.62,0,0,1,.27.26.74.74,0,0,1,.09.36.3.3,0,0,1-.09.26c-.06,0-.15,0-.27,0a.72.72,0,0,1-.35-.63Z"/><path class="cls-19" d="M171.39,58.67c0-.14,0-.22.09-.26s.15,0,.26.05a.62.62,0,0,1,.27.26.74.74,0,0,1,.09.36.3.3,0,0,1-.09.26c-.06,0-.15,0-.27,0a.68.68,0,0,1-.26-.27A.74.74,0,0,1,171.39,58.67Z"/><path class="cls-19" d="M172.74,59.45c0-.14,0-.22.09-.26s.15,0,.26.05a.62.62,0,0,1,.27.26.74.74,0,0,1,.09.36.3.3,0,0,1-.09.26c-.06,0-.15,0-.27,0a.68.68,0,0,1-.26-.27A.74.74,0,0,1,172.74,59.45Z"/></g><path class="cls-20" d="M165.27,61.64l7.88,4.55a3,3,0,0,1,1.25,2.39h0c0,.93-.56,1.35-1.25,1L165.27,65"/><path class="cls-21" d="M165.27,65l-11.61-6.71a3,3,0,0,1-1.25-2.39h0c0-.93.56-1.35,1.25-1l11.61,6.7"/><ellipse class="cls-7" cx="113.23" cy="202.39" rx="92.8" ry="34.85"/><path class="cls-22" d="M102,82s4.71-1.3,7.27.84-2.2,9.46-2.2,9.46l16,36.29,16.71,19.12,10.67,23.09-36,15.72L89.52,137.59,90,98.19S91.74,85.77,102,82Z"/><path class="cls-23" d="M170.45,159.72S190,163.87,188,171c-1,3.4-8.34,11.45-18.64,12.31s-22-3.51-27.71-4.09,16.72-18,16.72-18S155.77,157.6,170.45,159.72Z"/><path class="cls-24" d="M176.5,132.05h-5.87l-19.45,4.29-24.45,2.86-33.14-4.61,14.26,21.77,54.77-14S190.25,130.58,176.5,132.05Z"/><path class="cls-9" d="M128.33,65.93c3.51-2.55,5.32-4.06,5.44-4.51.17-.69,10.09-19,15.43-19.06.31,0,.55,0,.64.24.35.66,0,5.72.1,6,.46,2.16,2.09,4,6.44,3.75,8.85-.46-5.24,8.19-8.13,9.46s-4.52,7.2-8.63,6.58L132.5,74Z"/><path class="cls-9" d="M99.56,22.57q4.88,19.44,3.25,20.1t-1.62,4.26L95.07,63.5h-8.5l2.26,17.13H68.12l4.1-29L86.57,24.79Z"/><path class="cls-23" d="M87.72,5Q64.13,7,62.87,17.44c-1.26,10.4-7.59,7-5.49,16.62s6.24,26.21,13.74,26.19S88.42,47.5,85.75,41.17c-4.47-10.6,2.76-10.68,3.48-5.47s-1.7,22.81,0,27.37q1.71,4.54,8.74,1.24,5.79-17.23,2.67-19.09c-3.12-1.86-8.21,3.25-8.39-1.4q-.16-4.66,1.92-16.69,16.33-3.42,9.33-12.8T87.72,5Z"/><path class="cls-9" d="M156.08,88c.33-4.32.36-6.68.08-7.06-.4-.57-4.63-12-1.22-16.15a27.87,27.87,0,0,1,9-6.95q8.76,10,7.41,14.52a18.8,18.8,0,0,1-6,8.64l-.36,9Z"/><path class="cls-22" d="M58.65,180.67C62,191,73.82,205.17,80.67,209c4.12,2.3,11,7.11,21.74,7.15,10.32,0,17.75-4.65,23-9.44,5.57-5,7.86-7.16,19.86-16.59,2.87-2.25,23.16-16.86,27.17-21.16,8.46-9.08,16.53-13,17.45-16.34,3.89-14.09-5.38-23.13-11-20.85-11.13,4.53-15.47,11.65-39.26,16-1.77.32-13.66,1-19.76,3.07-3,1-15.83,5.16-21.3,9.44-7.29,5.72-.82,6.81-6.72,9C78.75,174.2,57.13,176,58.65,180.67Z"/><path class="cls-23" d="M59.66,72.8,72,101.33a12.25,12.25,0,0,0,16.1,6.39c.62-.27,14.53-1.42,14.1-4L139,74c9.48-7.36,4.88-7,2.45-10.22-4.47-6-8.41-5.48-10-2.63L105.6,76.27c-1,.6-16.68,9.72-17.28,8.69-.09-.16-7-2.47-1.26-2.62C72.52,69.18,59.66,72.8,59.66,72.8Z"/><g id="stroke-2"><path class="cls-25" d="M139.52,137.7c-2.13.31-4.25.64-6.38.91s-4.26.56-6.39.82h-.06c-1.27-.18-2.56-.33-3.83-.52l-3.83-.56c-2.55-.39-5.1-.81-7.64-1.28,2.57.24,5.14.53,7.7.85l3.84.5c1.28.16,2.55.37,3.83.55h-.06c2.13-.24,4.27-.47,6.4-.68S137.38,137.89,139.52,137.7Z"/></g><path class="cls-23" d="M116.93,99.44C111.35,94.86,102.09,89,92,83.1c-.4-.22.84-7.28-2.32-7.82-11.44-2-14.14-3-16.4-4.27s-4-2.38-2.9-6.32c0-.14.54-1.46-.14-1.36s-1.75,1.76-2.86,2.07c-1.4.39-2.84-.62-4.18-1.16C57.57,62,53.33,67,50.42,75.31c0,0-2,12.63-.85,22.2s7.06,37.66,7.36,44.55,1.72,38.61,1.72,38.61c14.59,28.56,28.32,29.47,39.9,29.47s34.85-10.94,33.32-32.08l-12.58-22.84L110,126.42S143,140,154.09,142.06s18.16-4.74,22.41-10c.42-.52,1.66-5.15-.39-12.38l-5.52-34.81c-1-3.75.86-8-2.6-10.19s-11.32,1-13.46,4.45l.68,37a2.16,2.16,0,0,1-3,.69C152.08,116.71,128.12,110.73,116.93,99.44Z"/><g id="stroke-2-2" data-name="stroke-2"><path class="cls-25" d="M162.56,141.31l-10.9,3.5c-1.82.57-3.62,1.17-5.46,1.73s-3.74.81-5.62,1.13c-3.78.62-7.57,1.09-11.36,1.52a51.73,51.73,0,0,0-11.16,2.24c3.43-1.75,7.33-2.34,11.11-2.69s7.58-.86,11.35-1.41c1.88-.29,3.77-.58,5.61-1s3.65-1.1,5.48-1.65Z"/></g><ellipse class="cls-26" cx="171" cy="212.72" rx="10.26" ry="6.05"/><ellipse class="cls-27" cx="171" cy="217.16" rx="10.26" ry="6.05"/><path class="cls-28" d="M181.53,212.72v19.16a5.15,5.15,0,0,1-2.45,4.5c-2.65,1.57-4.62,2.52-7.6,2.52a19.57,19.57,0,0,1-6.63-1c-1.47-.54-4.36-1.56-4.35-4.72,0-4.08,0-20.3,0-20.3S161.65,219,171,219C181,219,181.53,212.72,181.53,212.72Z"/><path class="cls-29" d="M160.74,212.72c0,3.34,4.6,6.19,10.27,6.19s10.25-2.85,10.25-6.19-4.59-6-10.26-6S160.74,209.38,160.74,212.72Z"/><path class="cls-30" d="M161.24,217.53a12.3,12.3,0,0,0-7.65,7.48c-2.76,7.25,4.54,9.67,6.11,9.47a21,21,0,0,0,3.72-1v-2.9s-1-.78-2.29-1.53c-.39.14-2.43,1.49-2.81.63a5.37,5.37,0,0,1,.7-4.32c1.57-2.38,2.79-3.29,4.4-3.68,0-1,0-2.91,0-2.91Z"/><path id="smoke" class="cls-31" d="M245.75,160.62q20,28.62-14.28,22.86c-34.25-5.75-35.78-5.2-23.61,4.41s-24.21-.92-16.38,4.88-26.4,4.89-21.8,12.58q4.6,7.69-.84,5.11-5.21-9.93,2-14.39c7.2-4.46-9.2-11.39,4.61-15.11s-9.58-11.63,5.94-13.26Q196.89,166.08,245.75,160.62Z"/><path class="cls-32" d="M256.69,148.44,226,130.73c-3.52-2-3.08-5.62,1-8l25.46-14.7c4.07-2.35,10.29-2.61,13.81-.57L297,125.2c3.52,2,3.08,5.62-1,8l-25.46,14.7C266.43,150.22,260.21,150.48,256.69,148.44Z"/><path class="cls-33" d="M255.24,145.73,224.56,128c-3.52-2-3.07-5.62,1-8L251,105.35c4.07-2.35,10.28-2.61,13.8-.58l30.68,17.71c3.52,2,3.08,5.63-1,8l-25.46,14.7C265,147.51,258.76,147.76,255.24,145.73Z"/><path class="cls-34" d="M255.27,142.49,224.6,124.78c-3.53-2-3.08-5.62,1-8l25.46-14.7c4.07-2.35,10.28-2.6,13.81-.57l30.67,17.71c3.53,2,3.08,5.62-1,8l-25.46,14.7C265,144.27,258.8,144.53,255.27,142.49Z"/><path class="cls-15" d="M267.05,117.9,262,120.82l4.87,2.81-1.29.75-4.87-2.81-5.11,3-1.38-.8,5.11-3L254.45,118l1.29-.75,4.87,2.81,5.06-2.92Z"/><path class="cls-15" d="M250.46,126.68c-5.61-3.24-5.61-8.51,0-11.74s14.73-3.24,20.34,0,5.61,8.5,0,11.74S256.07,129.92,250.46,126.68Zm19.38-11.19c-5.08-2.93-13.34-2.93-18.42,0s-5.08,7.7,0,10.64,13.34,2.93,18.42,0S274.92,118.42,269.84,115.49Z"/></g></svg>